<?xml version="1.0" encoding="UTF-8"?>
        <svg id="Layer_2" data-name="Layer 2" xmlns="http://www.w3.org/2000/svg" viewBox="0 0 125.54 97.13"
            class="c-vis4">
            <defs>
                <style>
                    .cls-1__vis4 {
                        fill: #fff;
                    }

                    .cls-2__vis4 {
                        fill: #b897f0;
                    }

                    .cls-3__vis4 {
                        fill: #f9e710;
                    }

                    .cls-4__vis4 {
                        fill: #6530bd;
                    }

                    .cls-5__vis4 {
                        fill: #f5b810;
                    }

                    .cls-6__vis4 {
                        fill: #f2c700;
                    }
                </style>
            </defs>
            <g id="Layer_1-2" data-name="Layer 1">
                <g>
                    <path class="cls-4__vis4"
                        d="m25.44,46.52s-11.98-11.81-4.04-26.68c4.8-8.97,43.94-43.71,76.54,7.5l-22.08,16.52-50.42,2.66Z" />
                    <path class="cls-4__vis4"
                        d="m26.2,59.61s-13.23,26-1.45,30.68c11.78,4.68,39.5,3.23,53.91-2.38l-52.46-28.3Z" />
                    <path class="cls-4__vis4"
                        d="m81.9,87.53s-1.46,4.92-7.94,9.6c0,0,14.05-5.36,18.18-12.58l-10.25,2.98Z" />
                    <path class="cls-4__vis4"
                        d="m93.33,85.27s-1.03,5.88-4.61,9.18c0,0,8.33-5.92,10.35-12.3l-3.59-1.06-2.15,4.19Z" />
                    <path class="cls-3__vis4"
                        d="m35,72.62s-27.67-24.35,7.9-45.5c35.57-21.15,64.33-5.58,64.43,15.25.04,8.3,13.11,9.83,16.95,11.75,0,0,4.11,1.62-2.57,4.8-13.11,6.26-11.24,11.72-18.66,19.78-12.22,13.26-45.52,15.39-68.06-6.08Z" />
                    <path class="cls-3__vis4" d="m24.82,50.1L2.89,31.71s-6.5,29.61,0,44.81l23.31-16.91-1.38-9.51Z" />
                    <path class="cls-5__vis4"
                        d="m8.83,72.21c-3.44-17.19.54-35.07.54-35.07h0l-6.48-5.43s-6.5,29.61,0,44.81l5.94-4.31h0Z" />
                    <g>
                        <path class="cls-1__vis4"
                            d="m101.75,43.45c0,4.66-3.78,8.43-8.43,8.43s-8.43-3.77-8.43-8.43,3.77-8.42,8.43-8.42,8.43,3.77,8.43,8.42Z" />
                        <path
                            d="m97.94,43.45c0,2.55-2.07,4.62-4.61,4.62s-4.61-2.07-4.61-4.62,2.07-4.61,4.61-4.61,4.61,2.07,4.61,4.61Z" />
                    </g>
                    <path class="cls-6__vis4"
                        d="m125.52,55.44l-100.61-1c1.34,10.49,10.08,18.19,10.08,18.19,22.54,21.47,55.84,19.34,68.06,6.08,7.42-8.06,5.55-13.52,18.66-19.78,3.18-1.52,3.91-2.68,3.8-3.48Z" />
                    <g>
                        <path class="cls-4__vis4" d="m78.66,25.81s-14.77,30.68.8,53.72c0,0-4.99-34.82-.8-53.72Z" />
                        <path class="cls-4__vis4" d="m60.88,25.81s-14.77,30.68.8,53.72c0,0-4.99-34.82-.8-53.72Z" />
                        <path class="cls-2__vis4" d="m41.27,36.73s-8.76,18.2.48,31.88c0,0-2.96-20.66-.48-31.88Z" />
                    </g>
                </g>
            </g>
        </svg>