<svg xmlns="http://www.w3.org/2000/svg" width="33.439" height="29.224" viewBox="0 0 33.439 29.224">
    <g id="trophy" transform="translate(0.5 0.5)">
      <path id="b" d="M32.939,5.6h0c0,8.293-7.26,15.01-16.206,15.01h0C7.76,20.637.5,13.893.5,5.6Z" transform="translate(-0.5 -4.213)" fill="none" stroke="#231f20" stroke-miterlimit="10" stroke-width="1"/>
      <path id="c" d="M41.944.5h0c0,9.843-4.84,17.81-10.822,17.81h0C25.14,18.31,20.3,10.343,20.3.5Z" transform="translate(-14.916 -0.5)" fill="#fdca40" stroke="#231f20" stroke-miterlimit="10" stroke-width="1"/>
      <path id="Path_13" data-name="Path 13" d="M44.009,5.6l1.876,3.78,4.133.6-2.991,2.937.707,4.133L44.009,15.09l-3.7,1.958.707-4.133L38,9.978l4.16-.6Z" transform="translate(-27.803 -4.213)" fill="#fff" stroke="#231f20" stroke-miterlimit="10" stroke-width="1"/>
      <rect id="Rectangle_76" data-name="Rectangle 76" width="12.997" height="3.372" transform="translate(9.68 24.853)" fill="#fdca40" stroke="#231f20" stroke-miterlimit="10" stroke-width="1"/>
      <path id="Path_14" data-name="Path 14" d="M47.6,70.64a14.833,14.833,0,0,0,0-7.94h6.8a14.866,14.866,0,0,0,0,7.94Z" transform="translate(-34.793 -45.787)" fill="#fdca40" stroke="#231f20" stroke-miterlimit="10" stroke-width="1"/>
    </g>
  </svg>
  