<svg xmlns="http://www.w3.org/2000/svg" xmlns:xlink="http://www.w3.org/1999/xlink" width="79.984" height="37.443" viewBox="0 0 79.984 37.443">
  <defs>
    <clipPath id="clip-path">
      <rect id="Rectangle_81" data-name="Rectangle 81" width="79.984" height="37.443"/>
    </clipPath>
  </defs>
  <g id="Group_2" data-name="Group 2" clip-path="url(#clip-path)">
    <path id="Path_15" data-name="Path 15" d="M3.206,8.646a3.2,3.2,0,0,0,1.571-.283q.468-.283.476-.622a.693.693,0,0,0-.2-.541,2.052,2.052,0,0,0-.588-.372q-.379-.17-1.168-.428a10.314,10.314,0,0,1-1.588-.679A3.129,3.129,0,0,1,.235,4.242,2.725,2.725,0,0,1,0,3.046,2.6,2.6,0,0,1,1.354.63,5.17,5.17,0,0,1,3.966,0,7.909,7.909,0,0,1,6.709.452V2.6l-.023.032A7.986,7.986,0,0,0,4.27,2.286q-1.8,0-1.8.8,0,.5.836.873a11.624,11.624,0,0,0,1.238.485,11.531,11.531,0,0,1,1.562.663A2.679,2.679,0,0,1,7.734,7.555a2.9,2.9,0,0,1-1.305,2.5,5.219,5.219,0,0,1-3.089.921,5.2,5.2,0,0,1-2.987-.816V7.911a7.8,7.8,0,0,0,2.853.735" transform="translate(0 0.001)"/>
    <path id="Path_16" data-name="Path 16" d="M33.428,11.237V.586h2.809a8.2,8.2,0,0,1,4.267.84,2.974,2.974,0,0,1,1.312,2.707,3.056,3.056,0,0,1-1.751,2.835,9.057,9.057,0,0,1-4.165.851v3.418Zm3-5.746q2.917,0,2.917-1.253,0-1.325-2.917-1.325H35.9V5.491Z" transform="translate(-24.207 -0.424)"/>
    <path id="Path_17" data-name="Path 17" d="M67.734,5.487A5.353,5.353,0,0,1,73.27,0a5.182,5.182,0,0,1,3.919,1.56,5.417,5.417,0,0,1,1.5,3.9,5.39,5.39,0,0,1-1.543,3.927,5.289,5.289,0,0,1-3.96,1.584A5.209,5.209,0,0,1,69.253,9.4a5.4,5.4,0,0,1-1.519-3.908m2.473-.057a3.342,3.342,0,0,0,.816,2.305,2.773,2.773,0,0,0,2.214.911,2.809,2.809,0,0,0,2.19-.863,3.226,3.226,0,0,0,.784-2.257,3.355,3.355,0,0,0-.792-2.3,2.752,2.752,0,0,0-2.182-.9,2.919,2.919,0,0,0-2.214.862,3.109,3.109,0,0,0-.816,2.241" transform="translate(-49.05)"/>
    <path id="Path_18" data-name="Path 18" d="M113.144,11.236V.585H116.2a7.553,7.553,0,0,1,4.024.861,2.971,2.971,0,0,1,1.344,2.7,4.068,4.068,0,0,1-.439,2,3.625,3.625,0,0,1-1.261,1.3,3.522,3.522,0,0,0,1.032,1.3,6.562,6.562,0,0,0,1.564.946l.032.073-1.131,1.612a3.556,3.556,0,0,1-2.231-1,6.053,6.053,0,0,1-1.7-2.2,12.265,12.265,0,0,1-1.81.136v2.917Zm2.473-8.324V5.992h.291a5.653,5.653,0,0,0,2.424-.4,1.265,1.265,0,0,0,.76-1.189,1.2,1.2,0,0,0-.663-1.149,5.5,5.5,0,0,0-2.311-.342Z" transform="translate(-81.934 -0.424)"/>
    <path id="Path_19" data-name="Path 19" d="M148.154.586h8.752V2.913h-3.144v8.324h-2.473V2.913h-3.136Z" transform="translate(-107.286 -0.424)"/>
    <path id="Path_20" data-name="Path 20" d="M229.318,102.336q-.008,5.019-4.615,5.018a4.377,4.377,0,0,1-3.313-1.228,5.3,5.3,0,0,1-1.18-3.79V96.542h2.473v5.708a3.949,3.949,0,0,0,.436,2.115,1.756,1.756,0,0,0,1.584.662q2.142,0,2.142-2.745V96.542h2.473Z" transform="translate(-159.466 -69.911)"/>
    <path id="Path_21" data-name="Path 21" d="M261.707,104.6a3.206,3.206,0,0,0,1.571-.283q.468-.283.476-.622a.692.692,0,0,0-.2-.541,2.047,2.047,0,0,0-.588-.372q-.379-.17-1.168-.428a10.3,10.3,0,0,1-1.588-.679,3.129,3.129,0,0,1-1.471-1.479A2.725,2.725,0,0,1,258.5,99a2.6,2.6,0,0,1,1.354-2.416,5.17,5.17,0,0,1,2.612-.631,7.906,7.906,0,0,1,2.743.453v2.15l-.023.032a7.979,7.979,0,0,0-2.416-.348q-1.8,0-1.8.8,0,.5.836.873a11.662,11.662,0,0,0,1.238.485,11.518,11.518,0,0,1,1.562.663,2.679,2.679,0,0,1,1.625,2.449,2.9,2.9,0,0,1-1.3,2.5,5.751,5.751,0,0,1-6.076.105v-2.247a7.8,7.8,0,0,0,2.853.735" transform="translate(-187.195 -69.486)"/>
    <path id="Path_22" data-name="Path 22" d="M64.491,104.6a12.973,12.973,0,0,0,2.667-.373l.129.1V106.6a13.775,13.775,0,0,1-2.845.33,5.922,5.922,0,0,1-4.247-1.592,5.3,5.3,0,0,1-1.717-4.065,4.818,4.818,0,0,1,.45-2.053,5.44,5.44,0,0,1,3.178-2.852,6.756,6.756,0,0,1,2.433-.412,13.785,13.785,0,0,1,2.748.282v2.272l-.121.105a12.4,12.4,0,0,0-2.635-.332,3.59,3.59,0,0,0-2.61.94,3.035,3.035,0,0,0,0,4.448,3.507,3.507,0,0,0,2.57.932" transform="translate(-42.347 -69.486)"/>
    <rect id="Rectangle_77" data-name="Rectangle 77" width="27.22" height="2.247" transform="translate(52.016 4.821)"/>
    <rect id="Rectangle_78" data-name="Rectangle 78" width="13.433" height="2.247" transform="translate(0.29 31.286)"/>
    <rect id="Rectangle_79" data-name="Rectangle 79" width="2.473" height="10.651" transform="translate(1.134 13.417)"/>
    <path id="Path_23" data-name="Path 23" d="M22.874,59.291H20.4V48.64h2.473l3.968,6.352V48.64h2.473V59.291H26.842l-3.968-6.344Z" transform="translate(-14.774 -35.223)"/>
    <path id="Path_24" data-name="Path 24" d="M62.776,59.291H60.3V48.64h2.473l3.968,6.352V48.64h2.473V59.291H66.744l-3.968-6.344Z" transform="translate(-43.669 -35.223)"/>
    <path id="Path_25" data-name="Path 25" d="M98.594,53.541a5.352,5.352,0,0,1,5.536-5.487,5.182,5.182,0,0,1,3.919,1.56A5.805,5.805,0,0,1,108,57.445a5.288,5.288,0,0,1-3.96,1.584,5.209,5.209,0,0,1-3.927-1.579,5.4,5.4,0,0,1-1.519-3.908m2.473-.056a3.343,3.343,0,0,0,.816,2.305,2.773,2.773,0,0,0,2.214.911,2.81,2.81,0,0,0,2.19-.862,3.227,3.227,0,0,0,.784-2.257,3.356,3.356,0,0,0-.792-2.3,2.751,2.751,0,0,0-2.182-.9,2.92,2.92,0,0,0-2.214.863,3.109,3.109,0,0,0-.816,2.241" transform="translate(-71.397 -34.799)"/>
    <path id="Path_26" data-name="Path 26" d="M140.2,48.64h2.6l2.553,7.411,2.554-7.411h2.6l-3.669,10.651h-2.982Z" transform="translate(-101.523 -35.223)"/>
    <path id="Path_27" data-name="Path 27" d="M182.563,57.4h-4.356l-.655,1.891h-2.61L178.6,48.64h3.6l3.669,10.651h-2.659Zm-3.556-2.328h2.748l-1.374-4.008Z" transform="translate(-126.685 -35.223)"/>
    <path id="Path_28" data-name="Path 28" d="M211.651,48.64H220.4v2.328h-3.144v8.324h-2.473V50.967h-3.136Z" transform="translate(-153.268 -35.223)"/>
    <rect id="Rectangle_80" data-name="Rectangle 80" width="2.473" height="10.651" transform="translate(68.266 13.417)"/>
    <path id="Path_29" data-name="Path 29" d="M263.477,48.64h7.305v2.328H265.95v1.891h4.832v2.287H265.95v1.818h4.832v2.327h-7.305Z" transform="translate(-190.798 -35.223)"/>
    <path id="Path_30" data-name="Path 30" d="M102.709,105.3H98.353l-.655,1.891h-2.61l3.661-10.651h3.6l3.669,10.651h-2.659Zm-3.556-2.328H101.9l-1.374-4.008Z" transform="translate(-68.859 -69.911)"/>
    <path id="Path_31" data-name="Path 31" d="M147.2,101.415l-1.212,2.473h-2.465l-1.253-2.505-.073,5.81H139.72l.073-10.651h2.538l2.408,4.865,2.384-4.865h2.546l.1,10.651h-2.473Z" transform="translate(-101.179 -69.911)"/>
    <path id="Path_32" data-name="Path 32" d="M183.768,107.193V96.542h2.809a8.2,8.2,0,0,1,4.267.84,2.974,2.974,0,0,1,1.312,2.707,3.056,3.056,0,0,1-1.751,2.835,9.053,9.053,0,0,1-4.165.851v3.418Zm3-5.746q2.917,0,2.917-1.253,0-1.325-2.917-1.325h-.525v2.578Z" transform="translate(-133.077 -69.911)"/>
  </g>
</svg>