<svg xmlns="http://www.w3.org/2000/svg" xmlns:xlink="http://www.w3.org/1999/xlink" width="22px" height="22px" viewBox="0 0 24 24" version="1.1">
    <g id="surface1">
        <path style=" stroke:none;fill-rule:nonzero;fill:white;fill-opacity:1;" d="M 12 22 C 10.75 22 9.578125 21.765625 8.488281 21.300781 C 7.394531 20.832031 6.441406 20.191406 5.625 19.375 C 4.808594 18.558594 4.167969 17.605469 3.699219 16.511719 C 3.234375 15.421875 3 14.25 3 13 L 4.5 13 C 4.5 15.082031 5.230469 16.855469 6.6875 18.3125 C 8.144531 19.769531 9.917969 20.5 12 20.5 C 14.082031 20.5 15.855469 19.769531 17.3125 18.3125 C 18.769531 16.855469 19.5 15.082031 19.5 13 C 19.5 10.917969 18.792969 9.144531 17.375 7.6875 C 15.957031 6.230469 14.207031 5.5 12.125 5.5 L 11.550781 5.5 L 13.375 7.324219 L 12.351562 8.375 L 8.675781 4.699219 L 12.351562 1.023438 L 13.375 2.050781 L 11.425781 4 L 12 4 C 13.25 4 14.421875 4.234375 15.511719 4.699219 C 16.605469 5.167969 17.558594 5.808594 18.375 6.625 C 19.191406 7.441406 19.832031 8.394531 20.300781 9.488281 C 20.765625 10.578125 21 11.75 21 13 C 21 14.25 20.765625 15.421875 20.300781 16.511719 C 19.832031 17.605469 19.191406 18.558594 18.375 19.375 C 17.558594 20.191406 16.605469 20.832031 15.511719 21.300781 C 14.421875 21.765625 13.25 22 12 22 Z M 12 22 "/>
    </g>
</svg>