<svg xmlns="http://www.w3.org/2000/svg" xmlns:xlink="http://www.w3.org/1999/xlink" width="115.94"
    height="54.788" viewBox="0 0 115.94 54.788">
    <defs>
        <clipPath id="clip-path">
            <rect id="Rectangle_206" data-name="Rectangle 206" width="115.94" height="54.788"
                fill="#fff" />
        </clipPath>
    </defs>
    <g id="Group_301" data-name="Group 301" clip-path="url(#clip-path)">
        <path id="Path_322" data-name="Path 322"
            d="M4.692,12.652a4.685,4.685,0,0,0,2.3-.414q.684-.414.7-.911a1.015,1.015,0,0,0-.295-.792,3,3,0,0,0-.861-.544q-.554-.248-1.71-.627A15.091,15.091,0,0,1,2.5,8.371,4.578,4.578,0,0,1,.344,6.207,3.988,3.988,0,0,1,0,4.457,3.808,3.808,0,0,1,1.982.922,7.564,7.564,0,0,1,5.8,0,11.572,11.572,0,0,1,9.817.661V3.807l-.034.047a11.686,11.686,0,0,0-3.536-.509q-2.629,0-2.629,1.171,0,.733,1.223,1.277a17.009,17.009,0,0,0,1.811.71,16.872,16.872,0,0,1,2.286.97,3.92,3.92,0,0,1,2.378,3.583,4.246,4.246,0,0,1-1.91,3.654,7.636,7.636,0,0,1-4.52,1.348,7.6,7.6,0,0,1-4.37-1.194V11.576a11.418,11.418,0,0,0,4.175,1.076"
            transform="translate(0 0.001)" fill="#fff" />
        <path id="Path_323" data-name="Path 323"
            d="M33.428,16.171V.586h4.111q4.325,0,6.244,1.23A4.352,4.352,0,0,1,45.7,5.777a4.471,4.471,0,0,1-2.561,4.148,13.252,13.252,0,0,1-6.094,1.245v5Zm4.387-8.407q4.268,0,4.269-1.833,0-1.939-4.269-1.939h-.768V7.764Z"
            transform="translate(-19.936 -0.349)" fill="#fff" />
        <path id="Path_324" data-name="Path 324"
            d="M67.734,8.029A7.832,7.832,0,0,1,75.834,0a7.582,7.582,0,0,1,5.735,2.282,7.927,7.927,0,0,1,2.188,5.712A7.886,7.886,0,0,1,81.5,13.741,7.739,7.739,0,0,1,75.7,16.058a7.622,7.622,0,0,1-5.747-2.31,7.9,7.9,0,0,1-2.223-5.719m3.618-.083a4.89,4.89,0,0,0,1.194,3.373,4.058,4.058,0,0,0,3.24,1.333,4.11,4.11,0,0,0,3.2-1.262,4.721,4.721,0,0,0,1.147-3.3,4.909,4.909,0,0,0-1.159-3.362,4.027,4.027,0,0,0-3.193-1.321,4.272,4.272,0,0,0-3.24,1.262,4.549,4.549,0,0,0-1.194,3.279"
            transform="translate(-40.395)" fill="#fff" />
        <path id="Path_325" data-name="Path 325"
            d="M113.144,16.17V.585h4.466A11.052,11.052,0,0,1,123.5,1.846a4.348,4.348,0,0,1,1.967,3.945,5.952,5.952,0,0,1-.643,2.932,5.3,5.3,0,0,1-1.845,1.9,5.153,5.153,0,0,0,1.51,1.906,9.6,9.6,0,0,0,2.289,1.385l.047.107-1.655,2.359a5.2,5.2,0,0,1-3.265-1.465,8.857,8.857,0,0,1-2.493-3.216,17.947,17.947,0,0,1-2.649.2V16.17Zm3.618-12.18V8.5h.426a8.271,8.271,0,0,0,3.547-.584,1.851,1.851,0,0,0,1.112-1.74,1.758,1.758,0,0,0-.969-1.681,8.051,8.051,0,0,0-3.382-.5Z"
            transform="translate(-67.477 -0.349)" fill="#fff" />
        <path id="Path_326" data-name="Path 326"
            d="M148.154.586H160.96V3.991h-4.6V16.171h-3.618V3.991h-4.588Z"
            transform="translate(-88.356 -0.349)" fill="#fff" />
        <path id="Path_327" data-name="Path 327"
            d="M233.537,105.02q-.012,7.343-6.752,7.343a6.4,6.4,0,0,1-4.848-1.8q-1.727-1.8-1.727-5.546V96.542h3.618v8.353a5.778,5.778,0,0,0,.639,3.095,2.569,2.569,0,0,0,2.318.969q3.134,0,3.134-4.016v-8.4h3.618Z"
            transform="translate(-131.328 -57.576)" fill="#fff" />
        <path id="Path_328" data-name="Path 328"
            d="M263.193,108.608a4.691,4.691,0,0,0,2.3-.414q.684-.414.7-.911a1.013,1.013,0,0,0-.3-.792,3,3,0,0,0-.861-.544q-.554-.248-1.71-.627a15.074,15.074,0,0,1-2.324-.993,4.578,4.578,0,0,1-2.153-2.164,3.988,3.988,0,0,1-.344-1.75,3.808,3.808,0,0,1,1.982-3.535,7.564,7.564,0,0,1,3.822-.923,11.569,11.569,0,0,1,4.013.662v3.145l-.034.047a11.675,11.675,0,0,0-3.536-.509q-2.629,0-2.629,1.171,0,.733,1.223,1.277a17.067,17.067,0,0,0,1.811.71,16.849,16.849,0,0,1,2.286.969,3.921,3.921,0,0,1,2.378,3.583,4.246,4.246,0,0,1-1.909,3.654,8.415,8.415,0,0,1-8.89.154v-3.287a11.418,11.418,0,0,0,4.175,1.076"
            transform="translate(-154.164 -57.225)" fill="#fff" />
        <path id="Path_329" data-name="Path 329"
            d="M67.276,108.608a18.983,18.983,0,0,0,3.9-.546l.189.142v3.326a20.156,20.156,0,0,1-4.163.484,8.665,8.665,0,0,1-6.215-2.33,7.755,7.755,0,0,1-2.512-5.948,7.05,7.05,0,0,1,.659-3,7.96,7.96,0,0,1,4.65-4.173,9.886,9.886,0,0,1,3.56-.6,20.171,20.171,0,0,1,4.02.412v3.325l-.178.154a18.135,18.135,0,0,0-3.855-.486,5.254,5.254,0,0,0-3.819,1.375,4.441,4.441,0,0,0,0,6.508,5.132,5.132,0,0,0,3.76,1.364"
            transform="translate(-34.875 -57.225)" fill="#fff" />
        <rect id="Rectangle_202" data-name="Rectangle 202" width="39.829" height="3.288"
            transform="translate(76.111 7.055)" fill="#fff" />
        <rect id="Rectangle_203" data-name="Rectangle 203" width="19.656" height="3.288"
            transform="translate(0.425 45.779)" fill="#fff" />
        <rect id="Rectangle_204" data-name="Rectangle 204" width="3.618" height="15.585"
            transform="translate(0.473 19.61)" fill="#fff" />
        <path id="Path_330" data-name="Path 330"
            d="M21.079,64.171H17.461V48.586h3.618l5.806,9.294V48.586H30.5V64.171H26.885l-5.806-9.283Z"
            transform="translate(-10.413 -28.976)" fill="#fff" />
        <path id="Path_331" data-name="Path 331"
            d="M60.982,64.171H57.363V48.586h3.618l5.806,9.294V48.586h3.618V64.171H66.788l-5.806-9.283Z"
            transform="translate(-34.21 -28.976)" fill="#fff" />
        <path id="Path_332" data-name="Path 332"
            d="M95.654,56.029a7.831,7.831,0,0,1,8.1-8.029,7.582,7.582,0,0,1,5.735,2.282,8.494,8.494,0,0,1-.071,11.458,7.736,7.736,0,0,1-5.794,2.318,7.622,7.622,0,0,1-5.747-2.31,7.9,7.9,0,0,1-2.223-5.719m3.618-.082a4.891,4.891,0,0,0,1.194,3.373,4.058,4.058,0,0,0,3.24,1.333,4.112,4.112,0,0,0,3.2-1.262,4.722,4.722,0,0,0,1.147-3.3,4.911,4.911,0,0,0-1.159-3.361,4.026,4.026,0,0,0-3.193-1.321,4.272,4.272,0,0,0-3.24,1.262,4.549,4.549,0,0,0-1.194,3.279"
            transform="translate(-57.046 -28.626)" fill="#fff" />
        <path id="Path_333" data-name="Path 333"
            d="M137.255,48.586h3.808L144.8,59.429l3.737-10.843h3.808l-5.369,15.585h-4.364Z"
            transform="translate(-81.856 -28.975)" fill="#fff" />
        <path id="Path_334" data-name="Path 334"
            d="M183.153,61.4h-6.374l-.958,2.767H172l5.356-15.585h5.274L188,64.171h-3.89ZM177.95,58h4.02l-2.01-5.865Z"
            transform="translate(-102.578 -28.976)" fill="#fff" />
        <path id="Path_335" data-name="Path 335"
            d="M208.71,48.586h12.807v3.406h-4.6V64.171H213.3V51.991H208.71Z"
            transform="translate(-124.47 -28.975)" fill="#fff" />
        <rect id="Rectangle_205" data-name="Rectangle 205" width="3.618" height="15.585"
            transform="translate(98.702 19.61)" fill="#fff" />
        <path id="Path_336" data-name="Path 336"
            d="M260.537,48.586h10.69v3.406h-7.071v2.767h7.071V58.1h-7.071v2.661h7.071v3.405h-10.69Z"
            transform="translate(-155.378 -28.975)" fill="#fff" />
        <path id="Path_337" data-name="Path 337"
            d="M106.239,109.36H99.865l-.958,2.767H95.088l5.356-15.585h5.274l5.368,15.585H107.2Zm-5.2-3.406h4.02l-2.01-5.865Z"
            transform="translate(-56.708 -57.576)" fill="#fff" />
        <path id="Path_338" data-name="Path 338"
            d="M150.658,103.672l-1.774,3.618h-3.606l-1.833-3.666-.107,8.5H139.72l.107-15.585h3.713l3.524,7.119,3.488-7.119h3.725l.142,15.585H150.8Z"
            transform="translate(-83.326 -57.575)" fill="#fff" />
        <path id="Path_339" data-name="Path 339"
            d="M183.768,112.127V96.542h4.111q4.325,0,6.244,1.23a4.352,4.352,0,0,1,1.919,3.961,4.472,4.472,0,0,1-2.561,4.148,13.247,13.247,0,0,1-6.094,1.245v5Zm4.387-8.407q4.269,0,4.269-1.833,0-1.939-4.269-1.939h-.768v3.772Z"
            transform="translate(-109.595 -57.576)" fill="#fff" />
    </g>
</svg>
  