<?xml version="1.0" encoding="UTF-8"?>
            <svg xmlns="http://www.w3.org/2000/svg" xmlns:xlink="http://www.w3.org/1999/xlink" width="24px" height="24px" viewBox="0 0 24 24" version="1.1">
              <g id="surface1">
                <path style=" stroke:none;fill-rule:nonzero;fill:#4D4D4D;fill-opacity:1;" d="M 9 2.5 L 9 1 L 15 1 L 15 2.5 Z M 11.25 13.675781 L 12.75 13.675781 L 12.75 7.925781 L 11.25 7.925781 Z M 12 21.976562 C 10.765625 21.976562 9.605469 21.738281 8.511719 21.261719 C 7.421875 20.789062 6.464844 20.140625 5.648438 19.324219 C 4.832031 18.507812 4.1875 17.554688 3.710938 16.460938 C 3.238281 15.371094 3 14.207031 3 12.976562 C 3 11.742188 3.238281 10.578125 3.710938 9.488281 C 4.1875 8.394531 4.832031 7.441406 5.648438 6.625 C 6.464844 5.808594 7.421875 5.164062 8.511719 4.6875 C 9.605469 4.210938 10.765625 3.976562 12 3.976562 C 13.117188 3.976562 14.167969 4.164062 15.148438 4.539062 C 16.132812 4.914062 17.007812 5.433594 17.773438 6.101562 L 19.050781 4.824219 L 20.101562 5.875 L 18.824219 7.148438 C 19.425781 7.816406 19.9375 8.625 20.363281 9.574219 C 20.789062 10.523438 21 11.660156 21 12.976562 C 21 14.207031 20.761719 15.371094 20.289062 16.460938 C 19.8125 17.554688 19.167969 18.507812 18.351562 19.324219 C 17.535156 20.140625 16.578125 20.789062 15.488281 21.261719 C 14.394531 21.738281 13.234375 21.976562 12 21.976562 Z M 12 20.476562 C 14.082031 20.476562 15.855469 19.746094 17.3125 18.289062 C 18.769531 16.828125 19.5 15.058594 19.5 12.976562 C 19.5 10.890625 18.769531 9.121094 17.3125 7.664062 C 15.855469 6.203125 14.082031 5.476562 12 5.476562 C 9.917969 5.476562 8.144531 6.203125 6.6875 7.664062 C 5.230469 9.121094 4.5 10.890625 4.5 12.976562 C 4.5 15.058594 5.230469 16.828125 6.6875 18.289062 C 8.144531 19.746094 9.917969 20.476562 12 20.476562 Z M 12 13 Z M 12 13 "/>
              </g>
            </svg>